<svg xmlns="http://www.w3.org/2000/svg" viewBox="0 0 34 34"><defs><style>.cls-1{fill:#4e4e4e;fill-rule:evenodd;}</style></defs><title>questions</title><g id="Layer_2" data-name="Layer 2"><g id="Layer_1-2" data-name="Layer 1"><path id="_" data-name=" " class="cls-1" d="M17,34A17,17,0,1,0,0,17,17,17,0,0,0,17,34ZM6.09,18a10.86,10.86,0,0,0,2.5,6L5.71,26.89A15,15,0,0,1,2,18ZM24,8.59a10.86,10.86,0,0,0-6-2.5V2a14.93,14.93,0,0,1,8.88,3.69Zm-8-2.5a10.86,10.86,0,0,0-6,2.5L7.12,5.71A15,15,0,0,1,16,2V6.09ZM17,8a9,9,0,1,1-9,9,9,9,0,0,1,9-9ZM10,25.42a11,11,0,0,0,6,2.5V32a15,15,0,0,1-8.89-3.69Zm8,2.5a11,11,0,0,0,6-2.5l2.87,2.87A15,15,0,0,1,18,32V27.91Zm10.3-1L25.42,24a10.86,10.86,0,0,0,2.5-6H32a14.92,14.92,0,0,1-3.7,8.88ZM32,16H27.91a10.86,10.86,0,0,0-2.5-6l2.88-2.88A15,15,0,0,1,32,16ZM5.71,7.11,8.58,10a10.93,10.93,0,0,0-2.5,6H2A14.91,14.91,0,0,1,5.71,7.12ZM17.56,19v-.1a1.85,1.85,0,0,1,.86-1.56l.66-.46a3.37,3.37,0,0,0,1.59-2.83c0-1.62-1.3-3.19-3.78-3.19a3.42,3.42,0,0,0-3.66,3.16c0,.08,0,.15,0,.23a2.84,2.84,0,0,0,.08.72l2,.08a1.7,1.7,0,0,1-.07-.51,1.65,1.65,0,0,1,1.47-1.8h.17a1.46,1.46,0,0,1,1.59,1.3s0,.09,0,.14a1.52,1.52,0,0,1-.69,1.27l-.77.57a2.81,2.81,0,0,0-1.26,2.33,3.49,3.49,0,0,0,.06.65h1.73Zm-2.1,2.32a1.25,1.25,0,0,0,1.25,1.26h0A1.27,1.27,0,0,0,18,21.36h0a1.27,1.27,0,1,0-2.54,0Z"/></g></g></svg>