<svg id="Layer_1" data-name="Layer 1" xmlns="http://www.w3.org/2000/svg" viewBox="0 0 54 40"><defs><style>.cls-1,.cls-2{fill:#5c5c5c;}.cls-2{fill-rule:evenodd;}</style></defs><title>GAMS</title><path class="cls-1" d="M18.41,16.64V9.77a.13.13,0,0,0-.12-.13H13.05a.13.13,0,0,0-.13.13V12.4a.13.13,0,0,0,.13.13h2.29a.12.12,0,0,1,.13.12v.45a.14.14,0,0,1-.05.11,2.65,2.65,0,0,1-1,.49,3.46,3.46,0,0,1-1.19.11A3.41,3.41,0,0,1,12,13.52a3.28,3.28,0,0,1-1-.7,3.5,3.5,0,0,1-.76-1.14,3.75,3.75,0,0,1-.25-1.3,3.41,3.41,0,0,1,1-2.44,3,3,0,0,1,1.14-.76,3.7,3.7,0,0,1,1.3-.25,3.79,3.79,0,0,1,1.3.25,3.7,3.7,0,0,1,1,.67.11.11,0,0,0,.18,0L17.89,6a.13.13,0,0,0,0-.18,6.14,6.14,0,0,0-2-1.32,6.47,6.47,0,0,0-4.84,0A6.07,6.07,0,0,0,8.92,5.87,5.79,5.79,0,0,0,7.53,8a6.53,6.53,0,0,0-.45,2.42,6.46,6.46,0,0,0,.45,2.4,6.1,6.1,0,0,0,1.39,2.11A5.85,5.85,0,0,0,11,16.32a6.76,6.76,0,0,0,2.42.47,5.88,5.88,0,0,0,1-.08,5.57,5.57,0,0,0,.83-.19.14.14,0,0,1,.18.12.13.13,0,0,0,.13.13h2.69A.12.12,0,0,0,18.41,16.64Z"/><path class="cls-2" d="M28,15.32l.45,1.38a.11.11,0,0,0,.13.07h2.81a.12.12,0,0,0,.13-.16l-4-12.48A.14.14,0,0,0,27.37,4H24.73a.15.15,0,0,0-.13.09L20.36,16.61a.14.14,0,0,0,.13.18h2.83a.14.14,0,0,0,.13-.09l.47-1.38a.14.14,0,0,1,.12-.09h3.83A.14.14,0,0,1,28,15.32Zm-1.16-3H25.15a.13.13,0,0,1-.13-.16l.87-2.55a.13.13,0,0,1,.25,0L27,12.15A.13.13,0,0,1,26.84,12.31Z"/><path class="cls-1" d="M42.76,4h2.8a.12.12,0,0,1,.13.12l.72,12.49a.15.15,0,0,1-.13.15H43.61a.13.13,0,0,1-.13-.13l-.27-4.42a.13.13,0,0,0-.25,0l-1.52,4.5a.13.13,0,0,1-.12.09H38.57a.14.14,0,0,1-.12-.09L36.82,12a.13.13,0,0,0-.25,0l-.29,4.64a.12.12,0,0,1-.12.13H33.47a.14.14,0,0,1-.13-.15l.79-12.49A.12.12,0,0,1,34.26,4h2.8a.14.14,0,0,1,.13.09l2.63,7.54a.14.14,0,0,0,.25,0l2.58-7.54A.1.1,0,0,1,42.76,4Z"/><path class="cls-1" d="M43.23,30.88a.13.13,0,0,0,.15.13,1.94,1.94,0,0,0,.77-.22,2.26,2.26,0,0,0,.74-.52,2.11,2.11,0,0,0,.49-.76,2.19,2.19,0,0,0,.18-.92,2.22,2.22,0,0,0-.18-.92,2.83,2.83,0,0,0-.49-.76,2.6,2.6,0,0,0-.74-.52,2.74,2.74,0,0,0-.77-.22.14.14,0,0,0-.15.13Z"/><path class="cls-1" d="M32.56,32.8a3.44,3.44,0,0,1-2.67,0,3.55,3.55,0,0,1-1.1-.74,3.87,3.87,0,0,1-.74-1.1,3.38,3.38,0,0,1-.27-1.34,3.49,3.49,0,0,1,1-2.44,4.09,4.09,0,0,1,1.1-.74,3.38,3.38,0,0,1,1.34-.27,3.29,3.29,0,0,1,1.33.27,3.48,3.48,0,0,1,1.11.74,4.22,4.22,0,0,1,.74,1.11,3.29,3.29,0,0,1,.27,1.33A3.38,3.38,0,0,1,34.41,31a3.73,3.73,0,0,1-.74,1.1A4,4,0,0,1,32.56,32.8Z"/><path class="cls-2" d="M10.14,0H51.53a2.09,2.09,0,0,1,2.08,2.08V29.86A10.15,10.15,0,0,1,43.47,40H2.08A2.09,2.09,0,0,1,0,37.92V10.14A10.15,10.15,0,0,1,10.14,0Zm-.05,1.44a8.75,8.75,0,0,0-8.74,8.74v8.57a.68.68,0,0,0,.67.67H51.48a.68.68,0,0,0,.67-.67V2.11a.68.68,0,0,0-.67-.67ZM9.31,36A4.28,4.28,0,0,1,7,35.32a4,4,0,0,1-1.46-1.57,4.25,4.25,0,0,1-.53-2,.13.13,0,0,1,.13-.13H7.78a.13.13,0,0,1,.13.13,1.33,1.33,0,0,0,.21.68,1.65,1.65,0,0,0,.4.4,1.22,1.22,0,0,0,.67.22,1.43,1.43,0,0,0,.7-.15,1.52,1.52,0,0,0,.4-.25l.06-.07a1,1,0,0,0,.17-.24.55.55,0,0,0,.09-.29.9.9,0,0,0,0-.21.94.94,0,0,0,0-.22v0a.86.86,0,0,0-.09-.27.89.89,0,0,0-.23-.3,1.47,1.47,0,0,0-.4-.28l-.41-.16-.16-.05A1.45,1.45,0,0,1,9,30.47l-.91-.31a4.52,4.52,0,0,1-.93-.47,3.73,3.73,0,0,1-1-1,4.25,4.25,0,0,1-.6-1.23,3.83,3.83,0,0,1-.13-1.35,3.5,3.5,0,0,1,.4-1.36,4.05,4.05,0,0,1,.78-1,3.53,3.53,0,0,1,1-.68,3.9,3.9,0,0,1,1.23-.31,3.64,3.64,0,0,1,1.34.13,4.3,4.3,0,0,1,1.19.48,3.63,3.63,0,0,1,.92.82,3.93,3.93,0,0,1,.6,1.06,3.44,3.44,0,0,1,.19,1.1.12.12,0,0,1-.12.13H10.4a.13.13,0,0,1-.13-.11A.52.52,0,0,0,10,26a1.34,1.34,0,0,0-.43-.2H9.41a.71.71,0,0,0-.29,0,1,1,0,0,0-.35.13.72.72,0,0,0-.27.3.78.78,0,0,0-.05.58.82.82,0,0,0,.34.47,3.38,3.38,0,0,0,.54.25c.2.08.4.15.63.22s.4.13.6.2l.13,0c.16.06.33.12.48.19a4.14,4.14,0,0,1,1.79,6,4.26,4.26,0,0,1-1.79,1.53,4.74,4.74,0,0,1-.92.31H9.8Zm38.76-5.3a5.33,5.33,0,0,0,.41-2.06,5.19,5.19,0,0,0-.41-2.06A5.13,5.13,0,0,0,47,24.87a5.9,5.9,0,0,0-1.68-1.15,5,5,0,0,0-2-.45h-2.8a.12.12,0,0,0-.12.12V35.87a.12.12,0,0,0,.12.12H43.1a.12.12,0,0,0,.13-.12V34.1a.13.13,0,0,1,.13-.13,5,5,0,0,0,1.91-.43A5.74,5.74,0,0,0,47,32.38,5.31,5.31,0,0,0,48.07,30.69ZM31.21,23.25a6,6,0,0,1,2.47.5,6.83,6.83,0,0,1,2,1.36,6.65,6.65,0,0,1,1.38,2,6.13,6.13,0,0,1,.5,2.47,6,6,0,0,1-.5,2.48,6.77,6.77,0,0,1-1.38,2,6,6,0,0,1-2,1.35,6.24,6.24,0,0,1-4.94,0,6.62,6.62,0,0,1-2-1.35,6.36,6.36,0,0,1-1.36-2,6.14,6.14,0,0,1-.5-2.48,6,6,0,0,1,.5-2.47,6.77,6.77,0,0,1,1.36-2,6.15,6.15,0,0,1,2-1.36A6.37,6.37,0,0,1,31.21,23.25Zm-15.4,3H18.1v9.66a.12.12,0,0,0,.13.12h2.69a.12.12,0,0,0,.13-.12V26.21h2.31a.12.12,0,0,0,.12-.13V23.39a.12.12,0,0,0-.12-.12H15.81a.12.12,0,0,0-.12.12v2.69C15.67,26.15,15.74,26.21,15.81,26.21Z"/></svg>