<svg id="Layer_1" data-name="Layer 1" xmlns="http://www.w3.org/2000/svg" xmlns:xlink="http://www.w3.org/1999/xlink" viewBox="0 0 169 17"><defs><style>.cls-1{fill:#fff;}.cls-1,.cls-2{fill-rule:evenodd;}.cls-2{fill:#5c5c5c;}.cls-3{mask:url(#mask);}</style><mask id="mask" x="73.49" y="0" width="11.69" height="16.18" maskUnits="userSpaceOnUse"><g id="mask0"><path class="cls-1" d="M73.49,0h11.7V16.18H73.49V0Z"/></g></mask></defs><title>ukBeGambleAware6</title><path class="cls-2" d="M34.33,9.75H38A6.46,6.46,0,0,1,37.87,11a4.44,4.44,0,0,1-4.15,3.64c-2.62,0-4.62-2.71-4.62-6.43,0-4.72,2.77-6.34,4.62-6.34A4.44,4.44,0,0,1,37,3.56a5.28,5.28,0,0,1,.85,1.86h1.69V.54H37.87v2.4A5,5,0,0,0,33.33.31c-3.46,0-6.23,3.56-6.23,8s2.77,8,6.31,8A5.37,5.37,0,0,0,36.87,15,7.28,7.28,0,0,0,38,13.55V16h1.69V8.36H34.41Z"/><path class="cls-2" d="M49.33,11.92a3.55,3.55,0,0,1-3.38,3,2.38,2.38,0,0,1-2.39-2.25c0-1.47,1.16-2.09,4.7-2.55L49.33,10Zm1.54,2.71V8.21c0-3-2-4-4.38-4a4.89,4.89,0,0,0-3.08,1,4.18,4.18,0,0,0-1.31,2.4h1.77C44.18,6,45,5.5,46.64,5.5s2.62.85,2.62,2.16V8.82l-1.08.08c-4.62.47-6.54,1.55-6.54,3.8v.23a3.6,3.6,0,0,0,3.77,3.33,4.39,4.39,0,0,0,3.92-2.33V16h3.31l-.15-1.39Z"/><path class="cls-2" d="M70.18,7.2c0-2-1-3.18-2.77-3.18A3.69,3.69,0,0,0,65,5,6.62,6.62,0,0,0,63.87,6.5a2.51,2.51,0,0,0-2.69-2.4,4.43,4.43,0,0,0-3.69,2.4l-.08-2.24H54V5.65h1.69v9H54V16h5V14.63H57.34V8.82c0-1.08,1.3-3.33,3.07-3.33,1.16,0,1.7.62,1.7,2.09v8.36h3.38V14.55H63.8V8.67c0-.85,1.07-3.25,3.08-3.25,1.15,0,1.69.77,1.69,2.4v8.12H71.8V14.55H70.18Z"/><g class="cls-3"><path class="cls-2" d="M80.11,14.71a3.63,3.63,0,0,1-3.31-3.64l-.08-2A3.8,3.8,0,0,1,80.11,5.5c1.92,0,3.23,1.7,3.23,4.56S82.11,14.71,80.11,14.71Zm.46-10.53A4.63,4.63,0,0,0,76.8,6.73V0H73.57V1.39h1.54V14.63H73.49V16H76.8V13.86a4.55,4.55,0,0,0,3.77,2.32c2.46,0,4.62-2.71,4.62-5.88C85.19,6.89,83.19,4.18,80.57,4.18Z"/></g><path class="cls-2" d="M89.48,0H86.17V1.32h1.62V14.63H86.1V16H91V14.63H89.48Z"/><path class="cls-2" d="M94.25,9.21a7,7,0,0,1,.23-1.16,3.4,3.4,0,0,1,3.08-2.48,2.66,2.66,0,0,1,1.93.7,4.34,4.34,0,0,1,1.15,2.94Zm3.16-5c-2.85,0-5.08,2.63-5.08,6s2.23,6,5.38,6a4.78,4.78,0,0,0,3.7-1.71,3.9,3.9,0,0,0,.92-1.78l-1.92.08a2.84,2.84,0,0,1-2.77,2A3.33,3.33,0,0,1,95.48,14a5.16,5.16,0,0,1-1.3-3.48h8.38C102.56,6.42,100.25,4.18,97.41,4.18Z"/><path class="cls-2" d="M109.49,10.37l2-6.81,2,6.81ZM113.33.7h-3.69l-4.16,12.85h-1.15V16h3.54l1-3.32h5.38l1,3.32h3.46V13.55h-1.15Z"/><path class="cls-2" d="M130.87,6.58H132l-1.54,6.74-1.93-9h-3l-1.92,9.13L122,6.58h1.15V4.34h-4.62V6.58h1L122.1,16h3.08l1.85-8L129,16H132l2.46-9.37h1V4.34h-4.62Z"/><path class="cls-2" d="M143.72,11.69a2.63,2.63,0,0,1-2.62,2.48c-1.15,0-1.92-.62-1.92-1.55,0-1.63,1.77-1.86,4.46-2.09h.08Zm2.77-3.41c0-2.63-1.69-4.1-4.92-4.1C138.8,4.18,137,5.65,136.8,8l2.77.08V8c.07-1.08.61-1.78,2.07-1.78s2.08.54,2.08,2.32c-3.69.31-7.54.7-7.54,4.11a3.79,3.79,0,0,0,4.08,3.64,4.44,4.44,0,0,0,3.54-1.63V16h3.61V13.78h-1Z"/><path class="cls-2" d="M152.87,6.19V4.33H149V6.58h1.15V13.7H149V16h5.38V13.7H153V9.21a2.59,2.59,0,0,1,2.77-2.4A8.11,8.11,0,0,1,157.1,7V4.26a7.33,7.33,0,0,0-1.31-.16C154.48,4.1,153.64,4.72,152.87,6.19Z"/><path class="cls-2" d="M160.71,8.67a2.73,2.73,0,0,1,2.62-2.25h.08a2.33,2.33,0,0,1,2.31,2.33Zm7.08-2.25A5.29,5.29,0,0,0,163.33,4c-3.23,0-5.62,2.56-5.62,6.12s2.39,6.11,5.62,6.11a5.15,5.15,0,0,0,5.39-4.1l-2.93.08a2.38,2.38,0,0,1-2.38,1.7c-.54,0-2.46-.15-2.77-3.17H169A7.89,7.89,0,0,0,167.79,6.42Z"/><path class="cls-2" d="M7.51,13.54H4.3V9.34H7.21c1.64,0,2.72.85,2.72,2.13A2.23,2.23,0,0,1,7.51,13.54ZM4.3,3.2H7.1c1.4,0,2.4.74,2.4,1.76a2,2,0,0,1-2.19,2h-3Zm6.24,4.73a3.08,3.08,0,0,0,2-3.12,4,4,0,0,0-2.34-3.7C9.44.78,8.46.7,5.87.7H0V3.2H1.19V13.54H0v2.51H8.16c2.94,0,4.91-1.72,4.91-4.29A3.64,3.64,0,0,0,10.54,7.93Z"/><path class="cls-2" d="M17.54,8.78a2.69,2.69,0,0,1,2.59-2.29,2.34,2.34,0,0,1,2.45,2.29Zm7.05-2.36a5.27,5.27,0,0,0-4.46-2.37c-3.24,0-5.65,2.61-5.65,6.14s2.38,6.12,5.63,6.12a5.17,5.17,0,0,0,5.43-4.09h-3A2.34,2.34,0,0,1,20.18,14c-.55,0-2.52-.16-2.8-3.18h8.36A8,8,0,0,0,24.59,6.42Z"/></svg>