<svg id="Layer_1" data-name="Layer 1" xmlns="http://www.w3.org/2000/svg" viewBox="0 0 34 34"><defs><style>.cls-1{fill:#4a4a4a;fill-rule:evenodd;}</style></defs><title>Newwss</title><path id="News_footer" data-name="News footer" class="cls-1" d="M29,29a17,17,0,1,1,5-12A17,17,0,0,1,29,29ZM5.86,7a14.93,14.93,0,0,0-3.3,6H31.43a14.8,14.8,0,0,0-3.29-6ZM21,31.43a14.32,14.32,0,0,0,2-.69V25H21ZM26.09,23,24,19.8,21.85,23ZM25,25v4.66a14.84,14.84,0,0,0,2-1.52V25Zm-8,7a14.68,14.68,0,0,0,2-.14V24a1,1,0,0,1,.17-.55l4-6a1,1,0,0,1,1.39-.28,1,1,0,0,1,.27.28l4,6A1.09,1.09,0,0,1,29,24V26A14.89,14.89,0,0,0,32,17a13.36,13.36,0,0,0-.15-2H2.16A13.36,13.36,0,0,0,2,17,15,15,0,0,0,17,32ZM8.05,5H26A14.88,14.88,0,0,0,8.05,5ZM17,21H8V19h9Zm0,4H8V23h9Zm3-14V9h8v2ZM13,9h2v2H13ZM9,9h2v2H9ZM5,9H7v2H5Z"/></svg>