<svg xmlns="http://www.w3.org/2000/svg" viewBox="0 0 145 65"><defs><style>.cls-1{fill:#155f2f;}.cls-2{fill:#fbda40;}.cls-3{fill:none;stroke:#ffe045;stroke-linecap:round;stroke-linejoin:round;stroke-width:0;}.cls-4{fill:#ffe045;}</style></defs><title>gpwa</title><g id="Layer_2" data-name="Layer 2"><g id="Layer_1-2" data-name="Layer 1"><path class="cls-1" d="M0,52V11.72C0,5.12,5.63,0,12.23,0h121A11.6,11.6,0,0,1,145,11.72V52"/><path class="cls-2" d="M0,52v.72A12.48,12.48,0,0,0,12.23,65h121c6.6,0,11.77-5.68,11.77-12.28V52"/><line class="cls-3" y1="52" x2="145" y2="52"/><path class="cls-4" d="M38.63,16.28l-2.5,2.37a19.12,19.12,0,0,0-5.92-4,15.92,15.92,0,0,0-6.27-1.37,15,15,0,0,0-7.24,1.87,13.55,13.55,0,0,0-5.32,5.06,13.06,13.06,0,0,0-1.89,6.75,13.33,13.33,0,0,0,2,6.93A13.88,13.88,0,0,0,16.85,39,15.54,15.54,0,0,0,24.4,40.9a12.91,12.91,0,0,0,8.43-2.81,11.09,11.09,0,0,0,4.08-7.29H26.62V27.68H40.54q0,7.49-4.45,11.89T24.31,44q-9,0-14.19-6.1A16.23,16.23,0,0,1,6.11,27a16.66,16.66,0,0,1,2.31-8.54,16.4,16.4,0,0,1,6.32-6.18A18.43,18.43,0,0,1,23.83,10a20.21,20.21,0,0,1,7.73,1.48A23.07,23.07,0,0,1,38.63,16.28Z"/><path class="cls-4" d="M46.67,10.86H53.1a37.07,37.07,0,0,1,7.47.48,8.28,8.28,0,0,1,4.52,2.8,8.06,8.06,0,0,1,1.76,5.32,8.14,8.14,0,0,1-1.71,5.32,8.43,8.43,0,0,1-4.72,2.82,41.73,41.73,0,0,1-8.21.53H49.9v15H46.67ZM49.9,14V25l5.47.07a14.3,14.3,0,0,0,4.85-.6,5,5,0,0,0,2.42-2,5.4,5.4,0,0,0,.88-3,5.33,5.33,0,0,0-.88-3,4.85,4.85,0,0,0-2.32-1.92A13.93,13.93,0,0,0,55.61,14Z"/><path class="cls-4" d="M71.48,10.86H74.8l6.6,23.28,9.26-23.28h.67l9.15,23.28,6.71-23.28h3.29l-9.28,32.3h-.6L91,18.72,81.24,43.16h-.6Z"/><path class="cls-4" d="M124.28,10.86l15.06,32.3h-3.49l-5.08-10.63H116.86l-5,10.63h-3.6l15.26-32.3Zm-.41,6.86-5.53,11.69h11Z"/><path d="M34.67,54.85h1.25l2.49,6.46H37.13L36.62,60H34l-.53,1.33H32.18Zm.63,1.71-.87,2.22h1.73Z"/><path d="M39.35,54.85h1.31a4.28,4.28,0,0,1,1.53.2,1.55,1.55,0,0,1,.74.63,2,2,0,0,1,.27,1,1.76,1.76,0,0,1-.35,1.13,1.83,1.83,0,0,1-1,.62,5.53,5.53,0,0,1-1.3.1v2.74H39.35Zm1.23,2.53H41a2.12,2.12,0,0,0,.64-.07.57.57,0,0,0,.28-.22.64.64,0,0,0,.1-.37.59.59,0,0,0-.29-.55,1.66,1.66,0,0,0-.78-.13h-.35Z"/><path d="M44.39,54.85H45.7a4.28,4.28,0,0,1,1.53.2,1.55,1.55,0,0,1,.74.63,2,2,0,0,1,.27,1,1.76,1.76,0,0,1-.35,1.13,1.83,1.83,0,0,1-1,.62,5.53,5.53,0,0,1-1.3.1v2.74H44.39Zm1.23,2.53H46a2.12,2.12,0,0,0,.64-.07.57.57,0,0,0,.28-.22.64.64,0,0,0,.1-.37.59.59,0,0,0-.29-.55A1.66,1.66,0,0,0,46,56h-.35Z"/><path d="M49.52,54.85h1.3a4.32,4.32,0,0,1,1.53.19,1.57,1.57,0,0,1,.73.63,2,2,0,0,1,.28,1.05,1.79,1.79,0,0,1-.31,1.07,1.85,1.85,0,0,1-.92.65l1.53,2.87H52.32l-1.45-2.74h-.11v2.74H49.52Zm1.23,2.53h.39a1.51,1.51,0,0,0,.81-.15.58.58,0,0,0,.22-.51.63.63,0,0,0-.11-.37.61.61,0,0,0-.29-.22,2.22,2.22,0,0,0-.67-.07h-.34Z"/><path d="M57.71,54.68a3.21,3.21,0,0,1,2.36,1,3.31,3.31,0,0,1,1,2.42,3.27,3.27,0,0,1-1,2.4,3.38,3.38,0,0,1-4.78,0,3.4,3.4,0,0,1,2.41-5.78Zm0,1.2a2,2,0,0,0-1.51.62,2.17,2.17,0,0,0-.61,1.59,2.07,2.07,0,0,0,.77,1.7,2.11,2.11,0,0,0,1.37.49,2,2,0,0,0,1.49-.63,2.28,2.28,0,0,0,0-3.12A2,2,0,0,0,57.7,55.89Z"/><path d="M61.73,54.85H63l1.63,4.59,1.65-4.59h1.26L65.2,61.31H64Z"/><path d="M68.52,54.85h3.53v1.21H69.74v1.17h2.31V58.4H69.74v1.7h2.31v1.21H68.52Z"/><path d="M73.2,54.85h1.46a4.81,4.81,0,0,1,2.09.35,2.74,2.74,0,0,1,1.13,1.14,4,4,0,0,1,.2,3.21,2.85,2.85,0,0,1-.69,1,2.42,2.42,0,0,1-.95.57,6.74,6.74,0,0,1-1.77.16H73.2ZM74.42,56v4.08H75a2.86,2.86,0,0,0,1.22-.19,1.47,1.47,0,0,0,.62-.65,2.39,2.39,0,0,0,.24-1.13,2.14,2.14,0,0,0-.58-1.6A2.31,2.31,0,0,0,74.84,56Z"/><path d="M82,54.85h1.31a4.28,4.28,0,0,1,1.53.2,1.55,1.55,0,0,1,.74.63,2,2,0,0,1,.27,1,1.76,1.76,0,0,1-.35,1.13,1.83,1.83,0,0,1-1,.62,5.53,5.53,0,0,1-1.3.1v2.74H82Zm1.23,2.53h.39a2.12,2.12,0,0,0,.64-.07.57.57,0,0,0,.28-.22.64.64,0,0,0,.1-.37.59.59,0,0,0-.29-.55,1.66,1.66,0,0,0-.78-.13h-.35Z"/><path d="M90.11,54.68a3.21,3.21,0,0,1,2.36,1,3.31,3.31,0,0,1,1,2.42,3.27,3.27,0,0,1-1,2.4,3.38,3.38,0,0,1-4.78,0,3.4,3.4,0,0,1,2.41-5.78Zm0,1.2a2,2,0,0,0-1.51.62A2.17,2.17,0,0,0,88,58.1a2.07,2.07,0,0,0,.77,1.7,2.11,2.11,0,0,0,1.37.49,2,2,0,0,0,1.49-.63,2.28,2.28,0,0,0,0-3.12A2,2,0,0,0,90.1,55.89Z"/><path d="M94.7,54.85H96a4.32,4.32,0,0,1,1.53.19,1.57,1.57,0,0,1,.73.63,2,2,0,0,1,.28,1.05,1.79,1.79,0,0,1-.31,1.07,1.85,1.85,0,0,1-.92.65l1.53,2.87H97.5L96,58.57h-.11v2.74H94.7Zm1.23,2.53h.39a1.51,1.51,0,0,0,.81-.15.58.58,0,0,0,.22-.51.63.63,0,0,0-.11-.37.61.61,0,0,0-.29-.22,2.22,2.22,0,0,0-.67-.07h-.34Z"/><path d="M99.2,54.85h3.57v1.21H101.6v5.25h-1.25V56.06H99.2Z"/><path d="M105.59,54.85h1.25l2.49,6.46H108L107.54,60H104.9l-.53,1.33H103.1Zm.63,1.71-.87,2.22h1.73Z"/><path d="M110.27,54.85h1.23v5.29h1.79v1.17h-3Z"/></g></g></svg>