<svg width="43" height="39" viewBox="0 0 43 39" fill="none" xmlns="http://www.w3.org/2000/svg">
<path d="M31.0757 36.0953L42.2439 16.7137C43.3456 15.1111 42.5443 12.8324 40.9417 11.9309L21.1595 0.487228C19.6821 -0.539445 17.1279 0.136657 16.3517 1.76431L12.7959 7.92435H26.4431C28.9973 7.92435 31.1007 10.0027 31.1007 12.5569C31.1007 20.0191 31.5264 28.8084 31.0757 36.0953ZM8.13826 13.7589C10.0664 13.7589 11.6189 15.3114 11.6189 17.2395C11.6189 19.1677 10.0664 20.7202 8.13826 20.7202C6.23516 20.7202 4.68263 19.1677 4.68263 17.2395C4.68263 15.3114 6.23516 13.7589 8.13826 13.7589ZM26.5933 39C28.7218 39 29.9238 37.3223 29.9238 35.344V32.9652V12.5569C29.9238 10.6538 28.3712 9.07623 26.4431 9.07623C16.3266 9.07623 12.3952 9.07623 3.48067 9.07623C1.55253 9.07623 0 10.6538 0 12.5569V35.5444C0 37.4475 1.55253 39 3.48067 39H26.5933ZM14.9494 20.57C16.8775 20.57 18.43 22.1225 18.43 24.0506C18.43 25.9537 16.8775 27.5313 14.9494 27.5313C13.0463 27.5313 11.4937 25.9537 11.4937 24.0506C11.4937 22.1225 13.0463 20.57 14.9494 20.57ZM21.7605 27.3811C23.6886 27.3811 25.2411 28.9336 25.2411 30.8617C25.2411 32.7648 23.6886 34.3424 21.7605 34.3424C19.8574 34.3424 18.3048 32.7648 18.3048 30.8617C18.3048 28.9336 19.8574 27.3811 21.7605 27.3811Z" fill="#53D3CC"/>
</svg>
