<svg width="39" height="39" viewBox="0 0 39 39" fill="none" xmlns="http://www.w3.org/2000/svg">
<path d="M19.5 0C15.6433 0 11.8731 1.14365 8.66639 3.28634C5.45963 5.42903 2.96027 8.47451 1.48436 12.0377C0.00844908 15.6008 -0.377716 19.5216 0.374696 23.3043C1.12711 27.0869 2.9843 30.5615 5.71143 33.2886C8.43855 36.0157 11.9131 37.8729 15.6957 38.6253C19.4784 39.3777 23.3992 38.9916 26.9623 37.5156C30.5255 36.0397 33.571 33.5404 35.7137 30.3336C37.8563 27.1269 39 23.3567 39 19.5C38.9942 14.3301 36.9379 9.37353 33.2822 5.71783C29.6265 2.06213 24.6699 0.00580639 19.5 0ZM19.5 35.75C16.2861 35.75 13.1443 34.7969 10.472 33.0114C7.79969 31.2258 5.71689 28.6879 4.48697 25.7186C3.25704 22.7493 2.93524 19.482 3.56225 16.3298C4.18926 13.1776 5.73692 10.2821 8.00952 8.00951C10.2821 5.73691 13.1776 4.18925 16.3298 3.56224C19.482 2.93523 22.7493 3.25703 25.7186 4.48696C28.6879 5.71688 31.2258 7.79968 33.0114 10.472C34.797 13.1443 35.75 16.2861 35.75 19.5C35.7451 23.8083 34.0315 27.9387 30.9851 30.9851C27.9387 34.0315 23.8083 35.7451 19.5 35.75Z" fill="#53D3CC"/>
<path d="M19.5 4.875C16.6075 4.875 13.7799 5.73274 11.3748 7.33976C8.96972 8.94677 7.0952 11.2309 5.98827 13.9033C4.88134 16.5756 4.59171 19.5162 5.15602 22.3532C5.72033 25.1902 7.11323 27.7961 9.15857 29.8414C11.2039 31.8868 13.8098 33.2797 16.6468 33.844C19.4838 34.4083 22.4244 34.1187 25.0967 33.0117C27.7691 31.9048 30.0532 30.0303 31.6602 27.6252C33.2673 25.2201 34.125 22.3925 34.125 19.5C34.1206 15.6225 32.5784 11.9051 29.8366 9.16337C27.0949 6.4216 23.3775 4.87935 19.5 4.875ZM19.5 13C19.8214 13 20.1356 13.0953 20.4028 13.2739C20.67 13.4524 20.8783 13.7062 21.0013 14.0031C21.1243 14.3001 21.1565 14.6268 21.0938 14.942C21.0311 15.2572 20.8763 15.5468 20.6491 15.774C20.4218 16.0013 20.1322 16.1561 19.817 16.2188C19.5018 16.2815 19.1751 16.2493 18.8781 16.1263C18.5812 16.0033 18.3274 15.795 18.1489 15.5278C17.9703 15.2606 17.875 14.9464 17.875 14.625C17.875 14.194 18.0462 13.7807 18.351 13.476C18.6557 13.1712 19.069 13 19.5 13ZM9.75001 16.25C9.75001 15.9286 9.84531 15.6144 10.0239 15.3472C10.2024 15.08 10.4562 14.8717 10.7531 14.7487C11.0501 14.6257 11.3768 14.5935 11.692 14.6562C12.0072 14.7189 12.2968 14.8737 12.5241 15.1009C12.7513 15.3282 12.9061 15.6178 12.9688 15.933C13.0315 16.2482 12.9993 16.5749 12.8763 16.8719C12.7533 17.1688 12.545 17.4226 12.2778 17.6011C12.0106 17.7797 11.6964 17.875 11.375 17.875C10.944 17.875 10.5307 17.7038 10.226 17.399C9.92121 17.0943 9.75001 16.681 9.75001 16.25ZM26 26H13L11.9844 18.4844L16.25 21.125L19.5 16.25L22.75 21.125L26.8125 18.4844L26 26ZM27.625 17.875C27.3036 17.875 26.9894 17.7797 26.7222 17.6011C26.455 17.4226 26.2467 17.1688 26.1237 16.8719C26.0007 16.5749 25.9685 16.2482 26.0312 15.933C26.0939 15.6178 26.2487 15.3282 26.476 15.1009C26.7032 14.8737 26.9928 14.7189 27.308 14.6562C27.6232 14.5935 27.9499 14.6257 28.2469 14.7487C28.5438 14.8717 28.7976 15.08 28.9761 15.3472C29.1547 15.6144 29.25 15.9286 29.25 16.25C29.25 16.681 29.0788 17.0943 28.774 17.399C28.4693 17.7038 28.056 17.875 27.625 17.875Z" fill="#53D3CC"/>
</svg>
