<svg width="43" height="39" viewBox="0 0 43 39" fill="none" xmlns="http://www.w3.org/2000/svg">
<path d="M10.2456 10.5762C11.8884 10.5762 13.2201 9.24446 13.2201 7.60165C13.2201 5.95884 11.8884 4.62708 10.2456 4.62708C8.60276 4.62708 7.271 5.95884 7.271 7.60165C7.271 9.24446 8.60276 10.5762 10.2456 10.5762Z" fill="#53D3CC"/>
<path d="M32.0595 10.5762C33.7023 10.5762 35.0341 9.24446 35.0341 7.60165C35.0341 5.95884 33.7023 4.62708 32.0595 4.62708C30.4167 4.62708 29.085 5.95884 29.085 7.60165C29.085 9.24446 30.4167 10.5762 32.0595 10.5762Z" fill="#53D3CC"/>
<path d="M21.1527 6.61017C22.9781 6.61017 24.4578 5.13043 24.4578 3.30508C24.4578 1.47974 22.9781 0 21.1527 0C19.3274 0 17.8477 1.47974 17.8477 3.30508C17.8477 5.13043 19.3274 6.61017 21.1527 6.61017Z" fill="#53D3CC"/>
<path d="M30.6462 18.3263H11.6589C11.0405 18.3263 10.4474 18.572 10.0101 19.0093C9.57282 19.4465 9.32715 20.0396 9.32715 20.6581H32.978C32.978 20.0396 32.7323 19.4465 32.295 19.0093C31.8578 18.572 31.2647 18.3263 30.6462 18.3263Z" fill="#53D3CC"/>
<path d="M38.474 20.3458H29.7578V39H38.474C39.49 39 40.4643 38.5964 41.1828 37.878C41.9012 37.1596 42.3048 36.1852 42.3048 35.1693V24.1766C42.3048 23.1606 41.9012 22.1862 41.1828 21.4678C40.4643 20.7494 39.49 20.3458 38.474 20.3458ZM39.0736 26.1966L35.0763 34.1912C35.0078 34.3282 34.913 34.4503 34.7974 34.5507C34.6817 34.651 34.5474 34.7276 34.4022 34.776C34.2569 34.8245 34.1035 34.8438 33.9508 34.833C33.798 34.8222 33.6489 34.7814 33.512 34.7129C33.375 34.6444 33.2529 34.5497 33.1525 34.434C33.0522 34.3183 32.9756 34.184 32.9272 34.0388C32.8787 33.8935 32.8594 33.7402 32.8702 33.5874C32.881 33.4347 32.9219 33.2856 32.9903 33.1486L36.1422 26.8415H34.0316C33.7225 26.8413 33.426 26.7184 33.2074 26.4998C32.9888 26.2812 32.8659 25.9848 32.8657 25.6756C32.8657 25.3664 32.9886 25.0698 33.2072 24.8512C33.4259 24.6325 33.7224 24.5097 34.0316 24.5097H38.029C38.2278 24.5094 38.4234 24.56 38.5972 24.6566C38.7709 24.7533 38.9171 24.8927 39.0218 25.0618C39.1265 25.2308 39.1862 25.4238 39.1953 25.6224C39.2043 25.8211 39.1624 26.0187 39.0736 26.1966Z" fill="#53D3CC"/>
<path d="M14.8789 39H27.4265V20.3458H14.8789V39ZM17.9875 25.6756C17.9874 25.5224 18.0175 25.3707 18.0761 25.2292C18.1347 25.0876 18.2207 24.959 18.329 24.8508C18.4374 24.7425 18.566 24.6566 18.7076 24.5981C18.8491 24.5396 19.0009 24.5095 19.154 24.5097H23.1514C23.3501 24.5096 23.5456 24.5603 23.7192 24.657C23.8928 24.7537 24.0388 24.8933 24.1433 25.0623C24.2477 25.2313 24.3073 25.4243 24.3161 25.6228C24.325 25.8214 24.283 26.0189 24.194 26.1966L20.1967 34.1912C20.1299 34.331 20.036 34.456 19.9203 34.559C19.8047 34.662 19.6697 34.7409 19.5233 34.7912C19.3768 34.8415 19.2218 34.8621 19.0673 34.8518C18.9128 34.8415 18.7619 34.8005 18.6234 34.7313C18.4849 34.662 18.3616 34.5659 18.2606 34.4484C18.1597 34.331 18.0831 34.1946 18.0355 34.0473C17.9878 33.9 17.97 33.7446 17.983 33.5903C17.9961 33.436 18.0397 33.2859 18.1114 33.1486L21.264 26.8415H19.154C18.8448 26.8415 18.5483 26.7187 18.3296 26.5C18.111 26.2814 17.9875 25.9848 17.9875 25.6756Z" fill="#53D3CC"/>
<path d="M0 24.1766V35.1693C0 36.1852 0.403598 37.1596 1.12201 37.878C1.84042 38.5964 2.81479 39 3.83077 39H12.5469V20.3458H3.83077C2.81479 20.3458 1.84042 20.7494 1.12201 21.4678C0.403598 22.1862 0 23.1606 0 24.1766ZM8.27181 24.5097C8.47054 24.5096 8.666 24.5603 8.8396 24.657C9.01321 24.7537 9.1592 24.8933 9.26368 25.0623C9.36817 25.2313 9.42768 25.4243 9.43657 25.6228C9.44545 25.8214 9.40341 26.0189 9.31444 26.1966L5.31711 34.1912C5.24865 34.3282 5.15389 34.4503 5.03822 34.5507C4.92256 34.651 4.78826 34.7276 4.64301 34.776C4.49775 34.8245 4.34437 34.8438 4.19164 34.833C4.0389 34.8222 3.88979 34.7814 3.75283 34.7129C3.61586 34.6444 3.49372 34.5497 3.39338 34.434C3.29304 34.3183 3.21646 34.184 3.16803 34.0388C3.11959 33.8935 3.10023 33.7402 3.11107 33.5874C3.1219 33.4347 3.16271 33.2856 3.23117 33.1486L6.38507 26.8415H4.27448C3.96526 26.8415 3.66872 26.7187 3.45007 26.5C3.23142 26.2814 3.10859 25.9848 3.10859 25.6756C3.1085 25.5225 3.1386 25.3708 3.19716 25.2293C3.25572 25.0878 3.34159 24.9593 3.44987 24.851C3.55815 24.7427 3.68672 24.6568 3.82821 24.5983C3.9697 24.5397 4.12135 24.5096 4.27448 24.5097H8.27181Z" fill="#53D3CC"/>
<path d="M11.0528 16.0385C11.2538 16.0107 11.4563 15.996 11.6591 15.9945H30.6464C30.8492 15.996 31.0518 16.0107 31.2527 16.0385L32.5851 9.94189C31.9501 9.84064 31.3429 9.60916 30.8016 9.262C30.2604 8.91484 29.7967 8.45949 29.4399 7.92457L25.8163 9.83196L23.1754 5.87061C22.5448 6.17576 21.8533 6.33427 21.1528 6.33427C20.4522 6.33427 19.7607 6.17576 19.1301 5.87061L16.4892 9.83196L12.865 7.92457C12.5081 8.45949 12.0445 8.91484 11.5032 9.262C10.962 9.60916 10.3547 9.84064 9.71973 9.94189L11.0528 16.0385Z" fill="#53D3CC"/>
</svg>
