<svg width="37" height="39" viewBox="0 0 37 39" fill="none" xmlns="http://www.w3.org/2000/svg">
<path d="M26.1438 1.59716C27.1614 0.916185 28.4229 1.07691 29.0543 1.62611C29.3278 1.86453 29.5951 2.27053 29.3133 2.85248C28.7215 4.08038 27.4608 4.87333 26.1034 4.87333H22.2171C22.3999 5.34559 22.5012 5.85823 22.5012 6.39448C22.5012 6.87208 22.4205 7.3314 22.2742 7.76025H31.4141C32.0235 6.60244 32.0677 5.27323 31.5246 4.05524L30.4109 1.55527C30.2807 1.26582 30.0811 0.996166 29.81 0.760032C28.8639 -0.0611037 27.0358 -0.381027 25.5047 0.642727L21.3076 3.45272C21.5742 3.72846 21.8043 4.03924 21.9886 4.37821L26.1438 1.59716Z" fill="#53D3CC"/>
<path d="M14.2597 7.75949C14.1134 7.33064 14.0327 6.87132 14.0327 6.39372C14.0327 5.85747 14.134 5.34483 14.3168 4.87257H10.4328C9.07542 4.87257 7.81477 4.07885 7.21987 2.85096C6.93803 2.26976 7.2054 1.86377 7.47962 1.62611C7.81934 1.33056 8.34112 1.14775 8.90937 1.14775C9.39763 1.14775 9.91941 1.28257 10.3894 1.59716L14.5438 4.37821C14.7282 4.03848 14.959 3.7277 15.2248 3.45272L11.0277 0.642727C9.49665 -0.381027 7.66852 -0.0611037 6.72475 0.760032C6.42235 1.02283 6.20754 1.32675 6.08109 1.65429L5.00935 4.05448C4.46548 5.27247 4.50966 6.60167 5.1198 7.75949H14.2597Z" fill="#53D3CC"/>
<path d="M15.4989 7.75954H21.0328C21.237 7.34745 21.3527 6.88356 21.3527 6.39378C21.3527 4.69285 19.9664 3.30652 18.2655 3.30652C16.5646 3.30652 15.1782 4.69285 15.1782 6.39378C15.179 6.88432 15.2948 7.34745 15.4989 7.75954Z" fill="#53D3CC"/>
<path d="M0 11.3228V15.0971C0 16.2313 0.786096 17.185 1.84108 17.4432H16.1378V8.90662H2.41542C1.08393 8.90662 0 9.99055 0 11.3228Z" fill="#53D3CC"/>
<path d="M1.8418 35.794C1.8418 37.5619 3.27993 39 5.04788 39H16.1385V18.5897H1.8418V35.794Z" fill="#53D3CC"/>
<path d="M34.1169 8.90662H20.396V17.4425H34.6905C35.7462 17.1842 36.5315 16.2306 36.5315 15.0964V11.322C36.5323 9.99055 35.4484 8.90662 34.1169 8.90662Z" fill="#53D3CC"/>
<path d="M20.396 39H31.4844C33.2523 39 34.6905 37.5619 34.6905 35.794V18.5897H20.396V39Z" fill="#53D3CC"/>
</svg>
