<svg width="42" height="39" viewBox="0 0 42 39" fill="none" xmlns="http://www.w3.org/2000/svg">
<path d="M0 29.6877C0 32.1583 2.00282 34.1612 4.47348 34.1612H37.1706C39.6412 34.1612 41.6441 32.1583 41.6441 29.6877V29.281H0V29.6877Z" fill="#53D3CC"/>
<path d="M29.7688 36.5599H26.922V33.9572H14.7216V36.5599H11.8748C11.201 36.5599 10.6548 37.1062 10.6548 37.7799C10.6548 38.4537 11.201 39 11.8748 39H29.7688C30.4425 39 30.9888 38.4537 30.9888 37.7799C30.9888 37.1062 30.4425 36.5599 29.7688 36.5599Z" fill="#53D3CC"/>
<path d="M26.9224 16.2673H34.2426V5.6936H26.9224V16.2673ZM29.2401 7.727H31.9249C32.1996 7.727 32.4557 7.86568 32.606 8.09578C32.7561 8.32588 32.78 8.61617 32.6694 8.86774L30.5242 13.7479C30.3902 14.0527 30.092 14.2341 29.7791 14.2341C29.6698 14.2341 29.5588 14.212 29.4522 14.1652C29.041 13.9844 28.8542 13.5045 29.035 13.0932L30.6789 9.35373H29.2402C28.791 9.35373 28.4268 8.98958 28.4268 8.54037C28.4268 8.09115 28.7909 7.727 29.2401 7.727Z" fill="#53D3CC"/>
<path d="M7.40137 16.2673H14.7216V5.6936H7.40137V16.2673ZM9.71912 7.727H12.4039C12.6786 7.727 12.9347 7.86568 13.085 8.09578C13.2351 8.32588 13.259 8.61617 13.1484 8.86774L11.0032 13.7479C10.8692 14.0527 10.571 14.2341 10.2581 14.2341C10.1488 14.2341 10.0378 14.212 9.93124 14.1652C9.52001 13.9844 9.33318 13.5045 9.51399 13.0932L11.1579 9.35373H9.7192C9.26998 9.35373 8.90584 8.98958 8.90584 8.54037C8.90584 8.09115 9.2699 7.727 9.71912 7.727Z" fill="#53D3CC"/>
<path d="M17.1621 16.2673H24.4824V5.6936H17.1621V16.2673ZM19.4799 7.727H22.1646C22.4394 7.727 22.6955 7.86568 22.8457 8.09578C22.9959 8.32588 23.0198 8.61617 22.9092 8.86774L20.7639 13.7479C20.63 14.0527 20.3318 14.2341 20.0189 14.2341C19.9096 14.2341 19.7985 14.212 19.692 14.1652C19.2808 13.9844 19.0939 13.5045 19.2747 13.0932L20.9186 9.35373H19.4799C19.0307 9.35373 18.6666 8.98958 18.6666 8.54037C18.6666 8.09115 19.0306 7.727 19.4799 7.727Z" fill="#53D3CC"/>
<path d="M37.1706 0H4.47348C2.0068 0 0 2.0068 0 4.47348V26.8409H41.6441V4.47348C41.6441 2.0068 39.6373 0 37.1706 0ZM8.62162 23.5875H6.18154C5.50775 23.5875 4.9615 23.0412 4.9615 22.3674C4.9615 21.6936 5.50775 21.1474 6.18154 21.1474H8.62162C9.29541 21.1474 9.84166 21.6936 9.84166 22.3674C9.84166 23.0412 9.29541 23.5875 8.62162 23.5875ZM26.5156 23.5875H15.1285C14.4547 23.5875 13.9085 23.0412 13.9085 22.3674C13.9085 21.6936 14.4547 21.1474 15.1285 21.1474H26.5156C27.1893 21.1474 27.7356 21.6936 27.7356 22.3674C27.7356 23.0412 27.1893 23.5875 26.5156 23.5875ZM35.4625 23.5875H33.0224C32.3486 23.5875 31.8024 23.0412 31.8024 22.3674C31.8024 21.6936 32.3486 21.1474 33.0224 21.1474H35.4625C36.1363 21.1474 36.6826 21.6936 36.6826 22.3674C36.6826 23.0412 36.1363 23.5875 35.4625 23.5875ZM36.6826 17.4872C36.6826 18.161 36.1363 18.7073 35.4625 18.7073H6.18154C5.50775 18.7073 4.9615 18.161 4.9615 17.4872V4.47348C4.9615 3.79969 5.50775 3.25344 6.18154 3.25344H35.4625C36.1363 3.25344 36.6826 3.79969 36.6826 4.47348V17.4872Z" fill="#53D3CC"/>
</svg>
