<svg width="40" height="39" viewBox="0 0 40 39" fill="none" xmlns="http://www.w3.org/2000/svg">
<path d="M19.5122 2.77502C10.2755 2.77502 2.7876 10.263 2.7876 19.4996C2.7876 28.7362 10.2755 36.2242 19.5122 36.2242C28.7488 36.2242 36.2368 28.7362 36.2368 19.4996C36.2368 10.263 28.7488 2.77502 19.5122 2.77502ZM19.5122 7.42078L26.8747 19.7347L19.5122 24.0961L12.1497 19.7346L19.5122 7.42078ZM19.5085 31.5784C19.5038 31.5784 12.1432 21.186 12.1255 21.1599C12.1608 21.1562 19.4871 25.4925 19.5085 25.5046C19.6042 25.4675 26.8664 21.1637 26.8989 21.1655C26.8989 21.1656 19.5141 31.5784 19.5085 31.5784Z" fill="#53D3CC"/>
<path d="M20.1829 39C19.8838 39 19.6365 38.7631 19.6261 38.4619C19.6154 38.1542 19.8561 37.8962 20.1638 37.8854C20.5904 37.8705 21.0212 37.8407 21.4446 37.7965C21.751 37.7636 22.0249 37.9869 22.0568 38.2931C22.0888 38.5994 21.8664 38.8735 21.5602 38.9053C21.1115 38.9522 20.6547 38.9838 20.2025 38.9997C20.196 38.9999 20.1894 39 20.1829 39ZM17.5416 38.9104C17.5224 38.9104 17.5032 38.9094 17.4836 38.9075C17.0342 38.861 16.5805 38.7981 16.1353 38.7205C15.832 38.6676 15.6289 38.379 15.6819 38.0756C15.7347 37.7723 16.0238 37.5695 16.3268 37.6221C16.7467 37.6953 17.1745 37.7546 17.5983 37.7984C17.9046 37.8301 18.1271 38.104 18.0954 38.4102C18.0659 38.6969 17.8237 38.9104 17.5416 38.9104ZM24.1057 38.4512C23.8557 38.4512 23.6284 38.2818 23.5652 38.0283C23.4907 37.7295 23.6726 37.427 23.9714 37.3526C24.3854 37.2495 24.8007 37.1305 25.2052 36.999C25.4982 36.9036 25.8125 37.064 25.9077 37.3568C26.0029 37.6495 25.8427 37.9641 25.5499 38.0593C25.1204 38.1989 24.68 38.3252 24.2408 38.4345C24.1957 38.4459 24.1504 38.4512 24.1057 38.4512ZM13.6652 38.0927C13.6083 38.0927 13.5505 38.0841 13.4933 38.0655C13.062 37.9258 12.6307 37.7692 12.2114 37.5997C11.926 37.4844 11.788 37.1595 11.9033 36.874C12.0186 36.5884 12.3439 36.4506 12.6291 36.5659C13.024 36.7255 13.4304 36.8731 13.8368 37.0048C14.1297 37.0996 14.2903 37.414 14.1954 37.707C14.119 37.9427 13.9004 38.0927 13.6652 38.0927ZM27.8287 37.0948C27.6224 37.0948 27.4243 36.98 27.3275 36.7822C27.1922 36.5057 27.3067 36.1718 27.5833 36.0365C27.9662 35.8491 28.347 35.6461 28.7152 35.433C28.982 35.2783 29.3229 35.3698 29.477 35.6361C29.6313 35.9026 29.5402 36.2437 29.2738 36.3979C28.8832 36.6239 28.4793 36.8393 28.0732 37.038C27.9944 37.0766 27.9109 37.0948 27.8287 37.0948ZM10.0424 36.4806C9.94778 36.4806 9.852 36.4564 9.76403 36.4057C9.37245 36.1795 8.98388 35.9364 8.60892 35.6833C8.3537 35.511 8.28647 35.1645 8.45873 34.9093C8.63088 34.6542 8.97742 34.5867 9.23263 34.7591C9.58619 34.9978 9.95268 35.2269 10.3218 35.4402C10.5884 35.5943 10.6796 35.9352 10.5257 36.2019C10.4224 36.3806 10.235 36.4806 10.0424 36.4806ZM31.1844 34.9926C31.019 34.9926 30.8551 34.9192 30.7451 34.7787C30.5554 34.5362 30.5981 34.1859 30.8405 33.996C31.1765 33.7331 31.5071 33.4551 31.8233 33.1703C32.0522 32.964 32.4045 32.9823 32.6107 33.2111C32.8169 33.4399 32.7986 33.7923 32.5699 33.9985C32.2346 34.3006 31.884 34.5953 31.5277 34.8742C31.4257 34.9539 31.3046 34.9926 31.1844 34.9926ZM6.83701 34.1505C6.7041 34.1505 6.57075 34.1033 6.46427 34.0075C6.12878 33.7056 5.79908 33.3875 5.48443 33.0622C5.27036 32.8409 5.27627 32.488 5.49748 32.2739C5.7188 32.06 6.07169 32.0659 6.28576 32.287C6.58257 32.5938 6.89354 32.8937 7.21008 33.1786C7.43898 33.3847 7.45749 33.7371 7.25155 33.966C7.14151 34.0883 6.98953 34.1505 6.83701 34.1505ZM34.033 32.24C33.9064 32.24 33.7793 32.1972 33.6748 32.1095C33.439 31.9116 33.4083 31.5598 33.6064 31.3241C33.8811 30.9967 34.1475 30.6564 34.3978 30.3125C34.579 30.0636 34.9277 30.0084 35.1765 30.1896C35.4254 30.3708 35.4805 30.7194 35.2993 30.9683C35.0339 31.3331 34.7515 31.6941 34.4603 32.0409C34.3499 32.1722 34.1921 32.24 34.033 32.24ZM4.18415 31.209C4.01211 31.209 3.8423 31.1296 3.73315 30.9798C3.46723 30.615 3.21056 30.2358 2.9704 29.853C2.80672 29.5922 2.88555 29.2481 3.14634 29.0844C3.40713 28.9207 3.7511 28.9995 3.91489 29.2604C4.14145 29.6214 4.38351 29.979 4.63427 30.3232C4.81556 30.5719 4.76082 30.9206 4.51207 31.102C4.41295 31.1742 4.29799 31.209 4.18415 31.209ZM36.2514 28.9562C36.1629 28.9562 36.0732 28.9351 35.9897 28.8907C35.7179 28.7459 35.6151 28.4083 35.7597 28.1365C35.9603 27.76 36.1501 27.3715 36.3238 26.982C36.4491 26.7009 36.7787 26.5746 37.06 26.7C37.3413 26.8253 37.4675 27.1549 37.3421 27.4362C37.1579 27.8494 36.9566 28.2614 36.7439 28.6608C36.6435 28.8491 36.4508 28.9562 36.2514 28.9562ZM2.19872 27.7833C1.98554 27.7833 1.78206 27.6603 1.68941 27.4531C1.50488 27.0403 1.33295 26.6161 1.17841 26.1927C1.07283 25.9033 1.22167 25.5833 1.5109 25.4777C1.7999 25.3724 2.12012 25.521 2.22571 25.8102C2.37143 26.2093 2.53344 26.609 2.70737 26.9981C2.83292 27.2792 2.70693 27.609 2.42584 27.7344C2.35203 27.7677 2.27477 27.7833 2.19872 27.7833ZM37.738 25.2807C37.6873 25.2807 37.6356 25.2737 37.5845 25.2592C37.2884 25.1746 37.1171 24.8661 37.2016 24.5699C37.3189 24.1598 37.4229 23.7407 37.511 23.3243C37.5745 23.023 37.8706 22.8301 38.1717 22.8942C38.473 22.9579 38.6655 23.2538 38.6018 23.555C38.5083 23.9969 38.398 24.4415 38.2736 24.8764C38.2037 25.1212 37.9805 25.2807 37.738 25.2807ZM0.971475 24.0182C0.713805 24.0182 0.482448 23.8387 0.4267 23.5766C0.332708 23.1342 0.25321 22.6831 0.190437 22.2356C0.147734 21.9308 0.360136 21.6488 0.665081 21.6061C0.969691 21.563 1.25178 21.7758 1.29459 22.0807C1.35369 22.5025 1.42861 22.9278 1.51725 23.3447C1.58125 23.6458 1.38903 23.9419 1.08788 24.006C1.04885 24.0142 1.00983 24.0182 0.971475 24.0182ZM38.4218 21.3788C38.409 21.3788 38.3961 21.3783 38.3829 21.3774C38.0757 21.3563 37.8439 21.0901 37.865 20.7829C37.8942 20.3589 37.909 19.9272 37.909 19.4996L37.9089 19.4567C37.9089 19.1488 38.1585 18.8992 38.4664 18.8992C38.7744 18.8992 39.0239 19.1488 39.0239 19.4567L39.024 19.4953C39.024 19.9526 39.0083 20.4102 38.9774 20.8595C38.9571 21.1536 38.7123 21.3788 38.4218 21.3788ZM0.557486 20.0785C0.249642 20.0785 0 19.8289 0 19.521V19.5038C0 19.0546 0.0151636 18.6045 0.0451564 18.1616C0.0660063 17.8546 0.332485 17.6228 0.63899 17.643C0.946165 17.6639 1.1783 17.9297 1.15756 18.2369C1.12924 18.6548 1.11497 19.0796 1.11497 19.4996V19.521C1.11497 19.8289 0.865441 20.0785 0.557486 20.0785ZM38.2779 17.3773C38.0046 17.3773 37.7659 17.1762 37.7265 16.8978C37.667 16.4761 37.5915 16.051 37.5024 15.6342C37.4381 15.333 37.6301 15.0368 37.9311 14.9725C38.2323 14.9081 38.5284 15.1 38.5928 15.4012C38.6874 15.8434 38.7673 16.2945 38.8307 16.7418C38.8737 17.0466 38.6614 17.3287 38.3567 17.3718C38.3301 17.3756 38.3037 17.3773 38.2779 17.3773ZM0.96367 16.1383C0.925649 16.1383 0.887071 16.1344 0.848493 16.1262C0.547117 16.0629 0.354226 15.7673 0.417557 15.4661C0.510546 15.0236 0.620482 14.5788 0.744355 14.144C0.828647 13.8479 1.13716 13.6763 1.4333 13.7607C1.72943 13.845 1.90103 14.1535 1.81662 14.4497C1.69989 14.8594 1.59631 15.2785 1.50867 15.6955C1.45348 15.9579 1.22179 16.1383 0.96367 16.1383ZM37.3145 13.5353C37.0873 13.5353 36.8738 13.3952 36.7912 13.1694C36.6449 12.7704 36.4823 12.3709 36.308 11.9822C36.1821 11.7013 36.3077 11.3713 36.5887 11.2455C36.8697 11.1195 37.1996 11.2451 37.3255 11.5261C37.5104 11.9386 37.6828 12.3624 37.838 12.7859C37.9439 13.075 37.7955 13.3952 37.5063 13.5011C37.443 13.5242 37.3782 13.5353 37.3145 13.5353ZM2.182 12.3673C2.1064 12.3673 2.02947 12.3518 1.95599 12.3192C1.67458 12.1941 1.54792 11.8647 1.6729 11.5833C1.85643 11.1704 2.05723 10.7581 2.26986 10.3579C2.41425 10.0861 2.75186 9.98252 3.02369 10.1271C3.29563 10.2715 3.39899 10.609 3.25449 10.881C3.05413 11.2583 2.86481 11.647 2.69188 12.0361C2.59945 12.2438 2.39563 12.3673 2.182 12.3673ZM35.5705 9.98196C35.3851 9.98196 35.2039 9.88953 35.098 9.72106C34.8716 9.36092 34.6292 9.00358 34.3777 8.65916C34.1961 8.41052 34.2504 8.06176 34.499 7.88013C34.7475 7.69861 35.0963 7.7528 35.2779 8.00144C35.5449 8.3667 35.8019 8.74568 36.042 9.12767C36.2059 9.38835 36.1274 9.73243 35.8666 9.89633C35.7744 9.95442 35.672 9.98196 35.5705 9.98196ZM4.16252 8.93367C4.04891 8.93367 3.9344 8.8991 3.83539 8.82719C3.58619 8.64634 3.53089 8.29769 3.71185 8.0486C3.97744 7.68278 4.2593 7.32153 4.54975 6.975C4.74744 6.73896 5.09921 6.70796 5.33514 6.90576C5.57118 7.10344 5.60218 7.4551 5.40438 7.69114C5.13043 8.01805 4.86451 8.35879 4.61409 8.70376C4.50493 8.85395 4.3349 8.93367 4.16252 8.93367ZM33.1239 6.86662C32.9783 6.86662 32.8329 6.80987 32.7235 6.69703C32.4272 6.3912 32.116 6.0916 31.7984 5.80662C31.5693 5.60091 31.5502 5.24846 31.756 5.01934C31.9617 4.79021 32.3141 4.77114 32.5432 4.97686C32.88 5.27901 33.21 5.59678 33.5243 5.92124C33.7386 6.14234 33.733 6.49522 33.5119 6.70952C33.4035 6.81444 33.2637 6.86662 33.1239 6.86662ZM6.8117 5.98669C6.6595 5.98669 6.50787 5.92469 6.39782 5.80283C6.19144 5.57437 6.2095 5.22182 6.43796 5.01543C6.77312 4.71272 7.12344 4.4177 7.47912 4.13862C7.7214 3.94874 8.07173 3.991 8.26183 4.23317C8.45182 4.47534 8.40956 4.82578 8.16728 5.01588C7.83178 5.27912 7.50131 5.55731 7.18521 5.84285C7.07862 5.93919 6.94494 5.98669 6.8117 5.98669ZM30.0849 4.32348C29.9778 4.32348 29.8695 4.29271 29.7741 4.22837C29.4204 3.99011 29.0537 3.76142 28.6842 3.54847C28.4174 3.39471 28.3259 3.05386 28.4796 2.78705C28.6334 2.52024 28.9739 2.42836 29.241 2.58245C29.6329 2.80835 30.0217 3.05096 30.3969 3.30351C30.6522 3.47543 30.7198 3.82197 30.5479 4.0773C30.4403 4.23718 30.2642 4.32348 30.0849 4.32348ZM10.0116 3.65216C9.81933 3.65216 9.63235 3.55259 9.52888 3.37442C9.37435 3.10805 9.46488 2.76698 9.73114 2.61245C10.1222 2.38544 10.5258 2.16969 10.9311 1.971C11.2075 1.83531 11.5415 1.9496 11.6771 2.22611C11.8127 2.50251 11.6984 2.83656 11.422 2.97214C11.04 3.15945 10.6595 3.36282 10.2909 3.57679C10.2029 3.62785 10.1065 3.65216 10.0116 3.65216ZM26.5839 2.46594C26.5147 2.46594 26.4443 2.45289 26.3761 2.42547C25.9798 2.26602 25.5733 2.11885 25.1676 1.98795C24.8746 1.8934 24.7137 1.5792 24.8081 1.2863C24.9026 0.993396 25.2173 0.832282 25.5099 0.926943C25.9404 1.06587 26.3718 1.22196 26.7922 1.39111C27.0779 1.50595 27.2162 1.83074 27.1013 2.1164C27.0139 2.33381 26.8048 2.46594 26.5839 2.46594ZM13.626 2.03444C13.3913 2.03444 13.1729 1.88504 13.0961 1.64978C13.0007 1.3571 13.1605 1.04234 13.4531 0.94679C13.8831 0.806415 14.3235 0.679642 14.7619 0.570041C15.0603 0.495003 15.3632 0.676855 15.4379 0.975668C15.5126 1.27437 15.3311 1.57708 15.0324 1.65167C14.6192 1.75503 14.2043 1.87445 13.7991 2.00668C13.7417 2.02552 13.6834 2.03444 13.626 2.03444ZM22.7724 1.38185C22.7407 1.38185 22.7087 1.37918 22.6765 1.37349C22.2572 1.30079 21.8294 1.24192 21.4051 1.19866C21.0988 1.16733 20.8758 0.893717 20.9071 0.587434C20.9384 0.281152 21.212 0.0579342 21.5183 0.0894879C21.9683 0.135425 22.4221 0.197863 22.8671 0.275019C23.1705 0.327646 23.3737 0.616201 23.3211 0.919473C23.274 1.19075 23.0385 1.38185 22.7724 1.38185ZM17.4996 1.20814C17.218 1.20814 16.9761 0.995403 16.9459 0.709078C16.9136 0.402906 17.1357 0.128512 17.4418 0.0961777C17.8903 0.0489029 18.3471 0.0166802 18.7995 0.000401599C19.1059 -0.0111941 19.3656 0.229751 19.3766 0.537484C19.3877 0.845216 19.1473 1.10355 18.8396 1.11459C18.4126 1.12998 17.9818 1.16042 17.5588 1.20502C17.5389 1.20714 17.5191 1.20814 17.4996 1.20814Z" fill="#53D3CC"/>
</svg>
