<svg width="44" height="39" viewBox="0 0 44 39" fill="none" xmlns="http://www.w3.org/2000/svg">
<path d="M41.4214 27.9844C41.4214 12.5735 33.4622 5.06283 23.4851 4.39521V3.61633C23.317 2.7818 22.5323 2.28109 21.6915 2.44799C21.0749 2.55926 20.6265 3.05998 20.5144 3.61633V4.39521C10.5374 5.0072 2.57812 12.4066 2.57812 27.9844H20.5144V31.3225C20.5144 33.2697 19.3374 33.9373 18.3284 33.9373C17.3195 33.9373 16.2546 33.3253 16.2546 31.545C16.2546 30.7661 15.5819 30.0985 14.7972 30.0985C14.0125 30.0429 13.396 30.6548 13.3399 31.4337C13.3399 31.4894 13.3399 31.4894 13.3399 31.545C13.3399 35.05 15.8622 36.8303 18.3284 36.8303C20.7947 36.8303 23.4851 34.9387 23.4851 31.3225V27.9844H41.4214Z" fill="#A3A3A3"/>
<path d="M27.2406 11.7947C27.1846 12.0172 27.0725 12.1841 27.0164 12.4067L26.6801 13.7975V14.2426C26.7362 14.4095 26.8483 14.5764 27.0725 14.5764C27.2967 14.5764 27.4648 14.5208 27.633 14.4095C27.8572 14.2426 28.0253 14.0201 28.1935 13.7975H28.2495C28.3056 13.3525 28.4738 12.963 28.6419 12.5736C28.8101 12.2398 28.9222 11.8503 29.0903 11.4609C29.1464 11.2383 29.1464 11.0158 29.1464 10.7933L29.2585 10.682C29.4827 10.682 29.6508 10.682 29.875 10.682C30.2113 10.7376 30.4916 11.0158 30.4355 11.3496C30.4355 11.6278 30.4355 11.9059 30.3234 12.1285L29.819 13.1855L29.5948 13.7975V13.9644C29.5948 14.1313 29.7069 14.187 29.875 14.187C30.1553 14.187 30.3795 14.0757 30.5476 13.9088C30.8839 13.6306 31.1081 13.2968 31.2763 12.9074C31.6126 12.351 31.8368 11.739 31.9489 11.0714C31.9489 10.9602 31.9489 10.7933 32.005 10.682H32.061C32.2852 10.6263 32.5094 10.6263 32.7336 10.682C33.0699 10.7933 33.182 11.0714 33.182 11.4609C33.182 11.7947 33.126 12.0729 33.0139 12.4067C32.7897 12.963 32.6215 13.5194 32.4534 14.0757C32.2852 14.6321 32.2852 14.7433 32.1731 15.0771C33.0139 14.7433 33.6304 14.0757 33.9667 13.2412C34.247 13.2968 34.4152 13.5194 34.4152 13.7975C34.4152 14.1313 34.3031 14.4651 34.1349 14.7433C33.6865 15.4109 32.9578 15.9117 32.1731 16.0786C32.061 16.1342 32.005 16.1898 31.9489 16.3011C31.6126 17.2469 30.8279 17.9145 29.819 18.0814C29.4266 18.1927 28.9782 18.1927 28.5859 18.0814C28.2495 18.0258 27.9132 17.8032 27.7451 17.4694C27.5769 17.08 27.633 16.5793 27.9132 16.2455C28.1935 15.9673 28.5298 15.8004 28.8661 15.6891C29.3706 15.5222 29.875 15.4109 30.4355 15.3553H30.996L31.1642 14.5208L30.8839 14.7433C30.5476 15.0771 30.0992 15.2997 29.6508 15.3553C29.3145 15.4666 28.9782 15.4109 28.698 15.1884L28.4738 15.0215L28.1374 15.3553C27.7451 15.6891 27.2406 15.9117 26.7362 15.9673C26.3999 16.0229 26.0636 15.9117 25.8394 15.6891C25.7273 15.5778 25.6152 15.4666 25.5591 15.2997V15.1884L25.447 15.3553C25.1667 15.6891 24.7744 15.856 24.326 15.9117C24.0457 15.9673 23.8215 15.9673 23.5413 15.9117C23.1489 15.8004 22.8126 15.5222 22.6445 15.1328C22.6445 15.0771 22.6445 15.0771 22.5884 15.0215C22.5884 15.0771 22.5884 15.0771 22.5324 15.0771C21.8597 15.6335 20.9629 15.9673 20.0661 15.9117C19.6177 15.9673 19.1693 15.8004 18.889 15.4666C18.6088 15.1884 18.4967 14.8546 18.4406 14.4651C18.3285 13.7419 18.4406 13.0186 18.6088 12.2954C18.833 11.4052 19.1693 10.5707 19.7298 9.84746C20.0101 9.34675 20.4024 8.9573 20.9069 8.67913C21.2992 8.45659 21.6916 8.40095 22.14 8.45659C22.5324 8.51222 22.8687 8.7904 22.9808 9.17984C23.0368 9.62492 23.0368 10.1256 22.8687 10.5707C22.5884 11.4052 22.14 12.1285 21.5234 12.7405C21.019 13.2412 20.4585 13.6306 19.8419 13.9644C19.6738 14.0201 19.6738 14.0201 19.7298 14.187C19.7859 14.3539 20.0101 14.6877 20.3464 14.6877C20.9629 14.6321 21.5795 14.4095 22.0839 14.0201L22.4202 13.7419C22.4763 13.6863 22.4763 13.6863 22.4763 13.6306C22.6445 12.2954 23.5413 11.1271 24.8304 10.6263C25.447 10.3482 26.1757 10.2925 26.8483 10.4038C27.1846 10.4594 27.4648 10.5707 27.633 10.8489C27.8572 11.0714 27.9132 11.4609 27.7451 11.739H27.5769C26.9043 11.4052 26.1757 11.3496 25.447 11.5721C24.7183 11.8503 24.2139 12.4067 23.9336 13.1299C23.8215 13.4637 23.7655 13.8532 23.7655 14.2426C23.7655 14.5208 23.9897 14.7433 24.2699 14.7433C24.326 14.7433 24.4381 14.7433 24.4941 14.6877C24.7183 14.6321 24.8865 14.5208 25.0546 14.3539C25.2788 14.0201 25.447 13.6863 25.5591 13.2968C25.6712 13.0186 25.7273 12.7405 25.8394 12.4623C25.8954 12.2954 25.9515 12.1841 26.0636 12.0729C26.2878 11.7947 26.568 11.6834 26.9043 11.739L27.2406 11.7947ZM19.7859 12.7961L20.0101 12.6848C20.4024 12.4623 20.6827 12.1285 20.9629 11.7947C21.3553 11.3496 21.6355 10.8489 21.7476 10.2925C21.8037 10.1256 21.8037 9.90309 21.8037 9.73619C21.8037 9.56929 21.6355 9.45802 21.4674 9.51365L21.1871 9.68056C20.9629 9.84746 20.8508 10.07 20.7387 10.2925C20.4024 10.9045 20.1222 11.5721 19.898 12.2398C19.898 12.4623 19.8419 12.6292 19.7859 12.7961ZM30.7158 16.3567H30.3234L29.3145 16.5793C29.2024 16.6349 29.0903 16.6905 29.0343 16.8018C28.8661 16.9131 28.9222 17.08 29.1464 17.1356H29.4827C29.9871 17.08 30.3795 16.7462 30.6597 16.3567H30.7158Z" fill="#272727"/>
<path d="M25.391 21.1971C25.9515 21.1971 26.456 21.0858 26.9605 20.8076L27.0726 20.6964C27.2968 20.2513 27.6891 19.8618 28.1375 19.5837C28.642 19.3055 29.2025 19.1942 29.763 19.4168C30.1554 19.528 30.4356 19.9175 30.4356 20.3069C30.4356 20.9189 30.2114 21.5309 29.707 21.9203C29.3146 22.2541 28.8662 22.4767 28.4178 22.6436L27.7452 22.8105C27.8012 23.033 27.9694 23.1999 28.1936 23.2556C28.4178 23.3112 28.698 23.2556 28.9222 23.1999C29.6509 23.033 30.2675 22.6436 30.7159 22.0872C30.828 21.976 30.828 21.976 30.9401 22.0316C31.0522 22.0872 31.1082 22.2541 31.1643 22.421C31.1643 22.6436 31.1082 22.8105 30.9961 22.9774C30.7719 23.2556 30.4917 23.5337 30.1554 23.7006C29.5388 24.0901 28.7541 24.3126 28.0254 24.257C27.2968 24.257 26.6802 23.7006 26.6242 22.9774C26.512 22.6992 26.512 22.3654 26.5681 22.0316C26.6242 21.976 26.6242 21.976 26.6242 21.9203C26.0076 22.1429 25.335 22.1985 24.7184 22.0872C24.6624 22.5323 24.6624 22.9774 24.6063 23.4225C24.4942 24.0344 24.3261 24.6464 24.0458 25.2584C23.8216 25.6479 23.5413 25.9817 23.149 26.2042C22.7006 26.4267 22.1401 26.4267 21.6917 26.2598C21.1312 26.0929 20.8509 25.5366 21.0191 25.0359C21.1872 24.5352 21.6356 24.257 22.1401 24.3126C22.3082 24.3126 22.4764 24.3683 22.5885 24.5352L22.3643 24.869C22.3082 24.9246 22.3082 25.0359 22.2522 25.1471C22.2522 25.314 22.3643 25.4253 22.5324 25.4253C22.5885 25.4253 22.6445 25.4253 22.6445 25.4253C22.7566 25.3697 22.8127 25.314 22.8687 25.2028C22.9808 25.0915 23.0929 24.9246 23.149 24.7577C23.3171 24.3683 23.3732 23.9788 23.4292 23.5337V23.3112L23.3171 23.4225C22.9808 23.7563 22.5324 23.9788 22.084 24.0344C21.8038 24.0901 21.5235 24.0901 21.2433 23.9788C21.0191 23.8675 20.8509 23.645 20.7949 23.4225H20.7388C20.6267 23.5337 20.5706 23.645 20.4025 23.7006C19.9541 24.0344 19.3936 24.1457 18.8331 23.9788C18.3847 23.8675 18.0484 23.4781 17.9923 23.033C17.8241 22.4767 17.8802 21.8647 18.1044 21.364C18.5528 20.1956 19.5617 19.3055 20.7949 19.0829C21.2433 19.0273 21.7477 19.0273 22.1961 19.1386C22.5324 19.2499 22.8127 19.3611 22.9248 19.6949C23.0369 19.9175 23.0369 20.1956 22.8687 20.3625C22.6445 20.2513 22.4203 20.14 22.1961 20.0844C21.7477 19.9175 21.2993 19.9175 20.8509 20.0844C20.1783 20.2513 19.6738 20.752 19.3936 21.364C19.1694 21.6978 19.1133 22.1429 19.1133 22.5323C19.1133 22.8105 19.3375 23.033 19.5617 23.0887C19.6178 23.0887 19.6738 23.0887 19.7859 23.033C20.0101 22.9774 20.1783 22.8105 20.2904 22.6436C20.5706 22.3654 20.7388 22.0316 20.8509 21.6978C20.907 21.4196 21.0191 21.1971 21.0751 20.9189C21.1312 20.8076 21.1872 20.6964 21.2993 20.5851C21.4675 20.3625 21.8038 20.2513 22.084 20.3069H22.4203V20.4738L21.8598 22.0872C21.8598 22.2541 21.8038 22.421 21.8038 22.5879C21.8038 22.7548 22.028 23.033 22.3082 22.9774C22.5324 22.9774 22.7566 22.8661 22.9248 22.6992C23.149 22.4767 23.3732 22.1985 23.5413 21.8647C23.5413 21.8091 23.5974 21.6978 23.5974 21.6422C23.5974 21.1971 23.5974 20.8076 23.6535 20.3625C23.6535 19.6393 23.8777 18.916 24.1579 18.2484C24.3261 17.859 24.6063 17.5252 24.9987 17.247C25.391 17.0245 25.8394 16.9688 26.2878 17.0245C26.7363 17.1357 27.0165 17.4695 27.0726 17.9146C27.1847 18.3597 27.1286 18.8048 26.9605 19.2499C26.7363 19.7506 26.3999 20.2513 25.9515 20.6407L25.4471 21.0858C25.4471 21.1414 25.391 21.1414 25.391 21.1971ZM24.7184 20.5295L25.391 19.8618C25.6152 19.528 25.8394 19.1386 25.9515 18.7491C26.0076 18.6379 26.0636 18.471 26.0076 18.3041C25.9515 18.1372 25.8394 18.0259 25.6713 18.1372C25.5031 18.2484 25.5031 18.2484 25.391 18.3041C25.2789 18.471 25.1668 18.6379 25.1108 18.8604C24.9426 19.2499 24.8305 19.6393 24.7745 20.0287C24.7745 20.1956 24.7745 20.3626 24.7184 20.5295ZM27.7452 21.976C28.2496 21.8647 28.698 21.5865 29.0343 21.1971C29.1464 21.0302 29.2585 20.8633 29.2585 20.6407C29.3146 20.4182 29.1464 20.3069 28.9222 20.3069L28.5299 20.4738C28.3057 20.6964 28.1375 20.9745 27.9694 21.2527C27.8573 21.4752 27.8012 21.7534 27.7452 21.976Z" fill="#272727"/>
<path d="M17.6001 18.6375C17.7122 18.415 17.7683 18.1368 17.7122 17.8586C17.7122 17.5248 17.488 17.2466 17.1517 17.1354C16.8154 16.9685 16.367 16.9685 16.0307 17.1354C15.6383 17.3023 15.4141 17.7474 15.5823 18.1368C15.6383 18.1924 15.6383 18.3037 15.6944 18.3593C15.9186 18.5819 16.1428 18.7488 16.367 18.9157L17.3198 19.5277C17.7122 19.8059 17.9925 20.1953 18.1046 20.696C18.2167 21.308 18.1046 21.92 17.8243 22.4763C17.488 23.0883 16.9275 23.5334 16.2549 23.7559C15.302 24.1454 14.237 24.201 13.2281 23.8672C12.6116 23.7003 12.1632 23.2552 11.939 22.6432C11.6027 21.6974 11.995 20.6404 12.8358 20.084C13.3402 19.6946 14.0128 19.5833 14.6294 19.7502C15.0778 19.8615 15.3581 20.3066 15.246 20.7516V20.8073C15.246 20.9185 15.1899 20.9742 15.1339 21.0298C14.9097 20.7516 14.5173 20.696 14.181 20.7516C13.6205 20.8073 13.1721 21.3636 13.2842 21.92C13.3402 22.3094 13.6205 22.6432 14.0128 22.8101C14.7415 23.0883 15.5262 22.9214 16.0867 22.4763C16.6472 22.0869 16.8714 21.308 16.5351 20.696C16.367 20.4178 16.1428 20.1953 15.8625 20.0284L14.9657 19.4164C14.6855 19.2495 14.4613 19.027 14.3491 18.7488C14.0128 18.1368 14.0128 17.4136 14.4613 16.8572C14.7415 16.4121 15.246 16.134 15.7504 16.0227C16.4791 15.8001 17.3198 15.8558 17.9925 16.1896C18.4969 16.3009 18.8332 16.6903 18.9453 17.191C19.0014 17.4692 18.9453 17.7474 18.8893 18.0255C18.7211 18.3593 18.4409 18.5819 18.0485 18.6375H17.6001Z" fill="#272727"/>
<path d="M14.2932 9.29105L13.4524 9.73613C13.1722 9.95867 12.948 10.2925 12.8919 10.6263C12.7798 10.9601 12.7798 11.3495 13.004 11.6277C13.1161 11.7946 13.1161 11.9059 12.8919 11.9059H12.4995L11.7148 11.5164C11.3225 11.127 11.2104 10.515 11.4346 10.0143C11.6027 9.6805 11.883 9.40232 12.1632 9.12415C12.8359 8.51217 13.6206 8.12272 14.5174 8.01145C15.0218 7.95582 15.4703 7.95582 15.9747 8.01145C16.7594 8.12272 17.432 8.51217 17.9365 9.12415C18.2728 9.56923 18.441 10.0699 18.497 10.6263C18.497 11.2939 18.3288 11.9059 17.9925 12.4622C17.4881 13.2411 16.6473 13.7418 15.6945 13.8531H15.3021C15.19 13.8531 15.0779 13.7975 14.9658 13.6862C14.9097 13.6306 14.9097 13.5193 14.8537 13.408C14.7976 13.5749 14.7416 13.7975 14.6295 13.9644C14.4613 14.5764 14.2371 15.1327 13.9008 15.6334C13.7327 15.9116 13.5645 16.1341 13.3403 16.3567C13.2282 16.4679 13.1161 16.5792 12.948 16.5792H12.6677L12.1072 16.301C12.0511 16.2454 12.0511 16.1898 11.9951 16.1898C11.939 16.0785 11.939 16.0229 11.9951 15.9116C12.4435 15.5222 12.7798 15.0771 13.004 14.5207C13.2843 13.8531 13.5645 13.1855 13.7327 12.5179C13.9008 11.7946 14.0129 11.0714 14.125 10.2925L14.2932 9.34669V9.29105ZM15.6384 9.17978C15.5824 10.4037 15.3581 11.6277 15.0218 12.8517H15.4142C15.9187 12.7404 16.3671 12.4622 16.7034 12.0728C17.0397 11.6834 17.2078 11.127 17.1518 10.5707C17.0957 9.79177 16.4231 9.17978 15.6384 9.17978Z" fill="#272727"/>
</svg>
