<svg width="41" height="39" viewBox="0 0 41 39" fill="none" xmlns="http://www.w3.org/2000/svg">
<path d="M19.6373 1.47144C20.0237 0.812458 20.9763 0.812458 21.3627 1.47144L27.2547 11.5214C27.3957 11.7618 27.6306 11.9326 27.9029 11.9923L39.2817 14.4904C40.0278 14.6542 40.3222 15.5602 39.8149 16.1313L32.0776 24.8405C31.8924 25.0489 31.8027 25.3251 31.8299 25.6026L32.9704 37.1964C33.0452 37.9566 32.2745 38.5165 31.5746 38.2105L20.9006 33.5432C20.6452 33.4315 20.3548 33.4315 20.0994 33.5432L9.42543 38.2105C8.72553 38.5165 7.95482 37.9566 8.0296 37.1964L9.17006 25.6026C9.19735 25.3251 9.10759 25.0489 8.92245 24.8405L1.18514 16.1313C0.677793 15.5602 0.972179 14.6542 1.7183 14.4904L13.0971 11.9923C13.3694 11.9326 13.6043 11.7618 13.7453 11.5214L19.6373 1.47144Z" fill="white" fill-opacity="0.56"/>
</svg>
