<svg width="53" height="52" viewBox="0 0 53 52" fill="none" xmlns="http://www.w3.org/2000/svg">
<circle cx="26.4257" cy="26" r="26" fill="#65C97A"/>
<path d="M40.3558 14.6851L26.6464 8.43537C26.5768 8.40354 26.5016 8.38709 26.4255 8.38709C26.3495 8.38709 26.2742 8.40354 26.2047 8.43537L12.495 14.6851C12.3976 14.7295 12.3147 14.8023 12.2566 14.8946C12.1984 14.9869 12.1675 15.0948 12.1675 15.205V25.5018C12.1779 28.8187 13.0875 32.0658 14.7925 34.8731C16.4975 37.6805 18.9294 39.9352 21.8111 41.3802L26.1883 43.5569C26.2623 43.5938 26.3434 43.6129 26.4255 43.6129C26.5077 43.6129 26.5888 43.5938 26.6628 43.5569L31.0397 41.3802C33.9214 39.9352 36.3534 37.6805 38.0584 34.8732C39.7635 32.0658 40.6731 28.8187 40.6836 25.5018V15.205C40.6836 15.0947 40.6527 14.9868 40.5944 14.8945C40.5362 14.8022 40.4533 14.7294 40.3558 14.6851Z" fill="white"/>
<path d="M38.1627 16.1682L26.6469 10.9184C26.5773 10.8866 26.502 10.8701 26.426 10.8701C26.3499 10.8701 26.2747 10.8866 26.2051 10.9184L14.6889 16.1682C14.5916 16.2126 14.5088 16.2853 14.4506 16.3776C14.3924 16.4699 14.3615 16.5777 14.3615 16.6879V25.5018C14.3705 28.3907 15.1627 31.2188 16.6477 33.664C18.1328 36.1091 20.2509 38.0728 22.7608 39.3313L26.1887 41.0363C26.2627 41.0733 26.3438 41.0924 26.426 41.0924C26.5081 41.0924 26.5892 41.0733 26.6632 41.0363L30.0912 39.3313C32.6011 38.0728 34.7192 36.1091 36.2043 33.664C37.6893 31.2189 38.4815 28.3907 38.4905 25.5018V16.6879C38.4905 16.5777 38.4595 16.4698 38.4012 16.3775C38.343 16.2852 38.2602 16.2125 38.1627 16.1682Z" fill="#65C97A"/>
<path d="M26.663 41.0361L30.091 39.3311C32.6009 38.0726 34.719 36.1089 36.2041 33.6638C37.6891 31.2186 38.4813 28.3905 38.4903 25.5016V16.6877C38.4903 16.5774 38.4593 16.4695 38.4011 16.3772C38.3429 16.2848 38.26 16.2121 38.1625 16.1678L26.6467 10.9179C26.5771 10.8861 26.5018 10.8697 26.4258 10.8697V41.0922C26.5079 41.0921 26.589 41.073 26.663 41.0361Z" fill="#65C97A"/>
<path d="M32.1768 19.5954L26.5766 24.7783L24.876 26.3522L20.9765 22.7433L18.5718 24.9688L24.876 30.8036L26.5766 29.2296L34.5815 21.8209L32.1768 19.5954Z" fill="white"/>
</svg>
