<svg width="45" height="45" viewBox="0 0 45 45" fill="none" xmlns="http://www.w3.org/2000/svg">
<g clip-path="url(#clip0_3219_63)">
<path d="M22.5 45C34.9264 45 45 34.9264 45 22.5C45 10.0736 34.9264 0 22.5 0C10.0736 0 0 10.0736 0 22.5C0 34.9264 10.0736 45 22.5 45Z" fill="#E5C042"/>
<path fill-rule="evenodd" clip-rule="evenodd" d="M28.3784 20.807C27.5508 22.6569 26.2409 24.2289 24.5788 25.3657C24.1963 25.6269 23.4783 25.9233 23.4783 26.4134V29.3482C24.7109 29.3482 25.4348 30.3812 25.4348 31.3047H26.413C27.2221 31.3047 27.3913 31.8887 27.3913 32.7095V33.7308C27.3913 34.0047 27.1722 34.2268 26.9022 34.2268H17.1196C16.8496 34.2268 16.6304 34.0047 16.6304 33.7308V32.7095C16.6304 31.8887 16.7997 31.3047 17.6087 31.3047H18.587C18.587 30.7745 18.7904 30.1924 19.1602 29.8177C19.4116 29.5624 20.2079 29.4352 20.5435 29.3482V26.4134C20.5435 25.9243 19.8254 25.6269 19.4429 25.3657C17.7809 24.2289 16.472 22.6569 15.6434 20.8079C13.228 20.1466 11.7391 17.7744 11.7391 14.5451C11.7391 13.7244 12.509 12.7177 13.6957 12.7177H14.6739V12.2628C14.6739 11.4421 15.3323 10.7739 16.1413 10.7739H27.8804C28.6895 10.7739 29.3478 11.4421 29.3478 12.2628V12.7177H30.3261C31.9608 12.7177 32.2826 13.7244 32.2826 14.5451C32.2826 17.7734 30.7937 20.1466 28.3784 20.807ZM14.6739 16.2678V13.696H13.6957C13.1909 13.696 12.7174 14.2722 12.7174 14.5451C12.7174 16.9849 13.6194 18.7918 15.1767 19.5734C14.8432 18.5071 14.6739 17.3987 14.6739 16.2678ZM18.0978 32.2741C17.8278 32.2741 17.6087 32.4952 17.6087 32.7652V33.2651H26.413V32.7652C26.413 32.4952 26.1939 32.2741 25.9239 32.2741H18.0978ZM28.3696 12.2628C28.3696 11.9889 28.1504 11.7659 27.8804 11.7659H16.1413C15.8713 11.7659 15.6522 11.9889 15.6522 12.2628V16.2678C15.6522 17.6237 15.9183 18.9424 16.4436 20.1877C17.19 21.9613 18.4158 23.4669 19.9898 24.542C20.6423 24.9881 21.5217 25.3979 21.5217 26.4134V30.3264C21.1735 30.3264 20.8135 30.3264 20.5435 30.3264C20.297 30.3362 20.0279 30.3411 19.8519 30.5191C19.667 30.707 19.5652 31.0396 19.5652 31.3047H24.4565C24.4565 30.7578 24.0173 30.3264 23.4783 30.3264C23.2083 30.3264 22.9109 30.3264 22.5 30.3264V26.4134C22.5 25.4028 23.3795 24.9881 24.0329 24.542C25.606 23.4659 26.8327 21.9613 27.5791 20.1887C28.1035 18.9424 28.3696 17.6227 28.3696 16.2678V12.2628ZM30.3261 13.696H29.3478V16.2678C29.3478 17.3987 29.1786 18.5061 28.846 19.5734C30.4024 18.7908 31.3044 16.9839 31.3044 14.5451C31.3044 14.2722 31.183 13.696 30.3261 13.696ZM24.5152 18.7135L24.9192 20.8979C24.9545 21.0887 24.8703 21.2814 24.7021 21.3959C24.5338 21.5084 24.3098 21.525 24.1249 21.434L22.0079 20.4029L19.8929 21.434C19.708 21.524 19.484 21.5094 19.3158 21.3959C19.1465 21.2814 19.0624 21.0887 19.0976 20.8979L19.5016 18.7135L17.7897 17.1669C17.64 17.0319 17.5862 16.8303 17.6508 16.6454C17.7153 16.4615 17.8865 16.3275 18.0929 16.3001L20.4584 15.9812L21.5169 13.9934C21.6088 13.8202 21.7996 13.7107 22.0079 13.7107C22.2173 13.7107 22.4071 13.8202 22.5 13.9934L23.5575 15.9812L25.9229 16.3001C26.1303 16.3275 26.3015 16.4615 26.3661 16.6454C26.4307 16.8303 26.3769 17.0319 26.2272 17.1669L24.5152 18.7135ZM23.1153 16.9487C22.9363 16.9252 22.7817 16.8206 22.7025 16.6709L22.0079 15.3669L21.3144 16.6709C21.2341 16.8206 21.0796 16.9252 20.9015 16.9487L19.35 17.1581L20.473 18.1725C20.6022 18.2889 20.6609 18.4572 20.6305 18.6225L20.3654 20.0557L21.7536 19.3787C21.913 19.3014 22.1038 19.3014 22.2633 19.3787L23.6514 20.0557L23.3863 18.6225C23.355 18.4572 23.4147 18.2889 23.5438 18.1725L24.6669 17.1581L23.1153 16.9487Z" fill="white"/>
</g>
<defs>
<clipPath id="clip0_3219_63">
<rect width="45" height="45" fill="white"/>
</clipPath>
</defs>
</svg>
