<svg width="45" height="45" viewBox="0 0 45 45" fill="none" xmlns="http://www.w3.org/2000/svg">
<g clip-path="url(#clip0_3219_82)">
<path d="M22.5 45C34.9264 45 45 34.9264 45 22.5C45 10.0736 34.9264 0 22.5 0C10.0736 0 0 10.0736 0 22.5C0 34.9264 10.0736 45 22.5 45Z" fill="#FF7C7A"/>
<path fill-rule="evenodd" clip-rule="evenodd" d="M26.8983 34.2461H17.1235C15.7764 34.2461 14.6798 33.1739 14.6798 31.8562V12.1658C14.6798 10.8471 15.7764 9.77588 17.1235 9.77588H26.8983C28.2454 9.77588 29.342 10.8471 29.342 12.1658V31.8562C29.342 33.1739 28.2454 34.2461 26.8983 34.2461ZM28.3647 12.1658C28.3647 11.3744 27.7102 10.761 26.9022 10.761H17.1196C16.3115 10.761 15.6571 11.3744 15.6571 12.1658L15.6522 12.7175H28.3696L28.3647 12.1658ZM28.3696 13.6958H15.6522V29.3479H28.3696V13.6958ZM15.6522 30.3262L15.6571 31.8562C15.6571 32.6476 16.3115 33.261 17.1196 33.261H26.9022C27.7102 33.261 28.3647 32.6476 28.3647 31.8562L28.3696 30.3262H15.6522ZM23.9655 32.2886H22.0109C21.7409 32.2886 21.5218 32.0675 21.5218 31.7956C21.5218 31.5236 21.7409 31.3025 22.0109 31.3025H23.9655C24.2355 31.3025 24.4546 31.5236 24.4546 31.7956C24.4546 32.0675 24.2355 32.2886 23.9655 32.2886ZM20.0563 32.2886C19.7863 32.2886 19.5672 32.0675 19.5672 31.7956C19.5672 31.5236 19.7863 31.3025 20.0563 31.3025C20.3254 31.3025 20.5445 31.5236 20.5445 31.7956C20.5445 32.0675 20.3254 32.2886 20.0563 32.2886ZM18.1008 18.5812H20.5445V16.1336C20.5445 15.8636 20.7636 15.6445 21.0336 15.6445H25.921C26.191 15.6445 26.4092 15.8636 26.4092 16.1336V23.9646C26.4092 24.2356 26.191 24.4537 25.921 24.4537H23.4773V26.9013C23.4773 27.1713 23.2582 27.3904 22.9882 27.3904H18.1008C17.8308 27.3904 17.6126 27.1713 17.6126 26.9013V19.0703C17.6126 18.8003 17.8308 18.5812 18.1008 18.5812ZM23.4773 19.0703V23.4754H25.4319V16.6237H21.5218V18.5812H22.9882C23.2582 18.5812 23.4773 18.8003 23.4773 19.0703ZM18.5899 26.4112H22.5V19.5604H18.5899V26.4112ZM21.0336 21.5179C20.7636 21.5179 20.5445 21.2988 20.5445 21.0278C20.5445 20.7578 20.7636 20.5387 21.0336 20.5387C21.3036 20.5387 21.5218 20.7578 21.5218 21.0278C21.5218 21.2988 21.3036 21.5179 21.0336 21.5179ZM21.0336 22.9863C21.0336 23.2563 20.8145 23.4754 20.5445 23.4754C20.2745 23.4754 20.0563 23.2563 20.0563 22.9863C20.0563 22.7153 20.2745 22.4972 20.5445 22.4972C20.8145 22.4972 21.0336 22.7153 21.0336 22.9863ZM20.5445 24.9438C20.5445 25.2138 20.3254 25.4329 20.0563 25.4329C19.7863 25.4329 19.5672 25.2138 19.5672 24.9438C19.5672 24.6738 19.7863 24.4537 20.0563 24.4537C20.3254 24.4537 20.5445 24.6738 20.5445 24.9438Z" fill="white"/>
</g>
<defs>
<clipPath id="clip0_3219_82">
<rect width="45" height="45" fill="white"/>
</clipPath>
</defs>
</svg>
